<?xml version="1.0" encoding="UTF-8" standalone="no"?>
<!-- Generated by IcoMoon.io -->

<svg
   xmlns:dc="http://purl.org/dc/elements/1.1/"
   xmlns:cc="http://creativecommons.org/ns#"
   xmlns:rdf="http://www.w3.org/1999/02/22-rdf-syntax-ns#"
   xmlns:svg="http://www.w3.org/2000/svg"
   xmlns="http://www.w3.org/2000/svg"
   xmlns:sodipodi="http://sodipodi.sourceforge.net/DTD/sodipodi-0.dtd"
   xmlns:inkscape="http://www.inkscape.org/namespaces/inkscape"
   version="1.1"
   width="140"
   height="99"
   viewBox="0 0 140 99"
   id="svg2"
   inkscape:version="0.48.4 r9939"
   sodipodi:docname="image-icon.svg"
   inkscape:export-filename="/home/alan/files/tmp/mapaction/image-icon.png"
   inkscape:export-xdpi="90"
   inkscape:export-ydpi="90">
  <metadata
     id="metadata15">
    <rdf:RDF>
      <cc:Work
         rdf:about="">
        <dc:format>image/svg+xml</dc:format>
        <dc:type
           rdf:resource="http://purl.org/dc/dcmitype/StillImage" />
        <dc:title></dc:title>
      </cc:Work>
    </rdf:RDF>
  </metadata>
  <defs
     id="defs13" />
  <sodipodi:namedview
     pagecolor="#f3f3f3"
     bordercolor="#666666"
     borderopacity="1"
     objecttolerance="10"
     gridtolerance="10"
     guidetolerance="10"
     inkscape:pageopacity="1"
     inkscape:pageshadow="2"
     inkscape:window-width="854"
     inkscape:window-height="589"
     id="namedview11"
     showgrid="false"
     inkscape:zoom="1.84375"
     inkscape:cx="128.47458"
     inkscape:cy="39.528506"
     inkscape:window-x="327"
     inkscape:window-y="1163"
     inkscape:window-maximized="0"
     inkscape:current-layer="svg2" />
  <g
     id="icomoon-ignore"
     transform="translate(0,-413)" />
  <path
     d="m 131.23414,7.0714286 c 0.005,0.00376 0.0112,0.0084 0.0159,0.012817 V 91.915975 c -0.005,0.0044 -0.0104,0.0091 -0.0159,0.01282 H 8.7655859 c -0.00547,-0.0038 -0.011211,-0.0084 -0.015586,-0.01282 V 7.0840246 c 0.00465,-0.00442 0.010391,-0.00906 0.015586,-0.012596 H 131.23414 z M 131.25004,0 H 8.75 C 3.9375,0 0,3.1821429 0,7.0714286 V 91.928571 C 0,95.817857 3.9375,99 8.75,99 h 122.5 c 4.8125,0 8.75,-3.182143 8.75,-7.071429 V 7.0714286 C 140,3.1821429 136.0625,0 131.25,0 v 0 z"
     id="path5"
     inkscape:connector-curvature="0"
     style="fill:#cccccc" />
  <path
     d="m 113.5,26.357143 c 0,7.179792 -5.82021,13 -13,13 -7.179792,0 -13,-5.820208 -13,-13 0,-7.179792 5.820208,-13 13,-13 7.17979,0 13,5.820208 13,13 z"
     id="path7"
     inkscape:connector-curvature="0"
     style="fill:#cccccc" />
  <path
     d="M 122.5,84.857142 H 17.5 V 70.714285 l 30.625,-42.428571 35,35.357143 h 8.75 L 122.5,42.428571 z"
     id="path9"
     inkscape:connector-curvature="0"
     style="fill:#cccccc" />
</svg>
